<?xml version="1.0" encoding="UTF-8"?>
<svg version="1.1" xmlns="http://www.w3.org/2000/svg" width="160" height="32">
<path d="M0,0 L10,0 L10,1 L12,1 L12,3 L13,3 L13,29 L12,29 L12,31 L10,31 L10,32 L0,32 Z M4,12 L4,20 L8,20 L8,19 L9,19 L9,13 L8,13 L8,12 Z " fill="#BE8FD0" transform="translate(103,0)"/>
<path d="M0,0 L7,0 L7,1 L9,1 L9,3 L10,3 L10,29 L9,29 L9,31 L7,31 L7,32 L0,32 L0,31 L-2,31 L-2,29 L-3,29 L-3,3 L-2,3 L-2,1 L0,1 Z M2,12 L2,13 L1,13 L1,19 L2,19 L2,20 L5,20 L5,19 L6,19 L6,13 L5,13 L5,12 Z " fill="#BE8FD0" transform="translate(120,0)"/>
<path d="M0,0 L10,0 L10,12 L3,12 L3,13 L2,13 L2,14 L1,14 L1,18 L2,18 L2,19 L3,19 L3,20 L10,20 L10,32 L0,32 L0,31 L-2,31 L-2,29 L-3,29 L-3,3 L-2,3 L-2,1 L0,1 Z " fill="#BE8FD0" transform="translate(134,0)"/>
<path d="M0,0 L7,0 L7,1 L9,1 L9,3 L10,3 L10,8 L2,8 L2,9 L1,9 L1,12 L9,12 L9,13 L10,13 L10,29 L9,29 L9,31 L7,31 L7,32 L0,32 L0,31 L-2,31 L-2,29 L-3,29 L-3,24 L6,24 L6,21 L5,21 L5,20 L-2,20 L-2,19 L-3,19 L-3,3 L-2,3 L-2,1 L0,1 Z " fill="#BE8FD0" transform="translate(148,0)"/>
<path d="M0,0 L14,0 L14,1 L15,1 L15,4 L4,4 L4,5 L3,5 L3,6 L15,6 L15,15 L14,15 L14,16 L0,16 L0,15 L-1,15 L-1,12 L10,12 L10,11 L11,11 L11,10 L-1,10 L-1,1 L0,1 Z " fill="#BE8FD0" transform="translate(18,16)"/>
<path d="M0,0 L14,0 L14,1 L15,1 L15,4 L3,4 L3,6 L14,6 L14,7 L15,7 L15,9 L14,9 L14,10 L3,10 L3,12 L14,12 L14,13 L15,13 L15,16 L0,16 L0,15 L-1,15 L-1,1 L0,1 Z " fill="#BE8FD0" transform="translate(52,16)"/>
<path d="M0,0 L9,0 L9,1 L11,1 L11,2 L12,2 L12,3 L13,3 L13,4 L14,4 L14,6 L15,6 L15,15 L14,15 L14,16 L11,16 L11,13 L3,13 L3,16 L0,16 L0,15 L-1,15 L-1,1 L0,1 Z M3,4 L3,10 L11,10 L11,7 L10,7 L10,5 L8,5 L8,4 Z " fill="#BE8FD0" transform="translate(1,16)"/>
<path d="M0,0 L9,0 L9,1 L11,1 L11,2 L12,2 L12,3 L13,3 L13,4 L14,4 L14,6 L15,6 L15,9 L14,9 L14,13 L15,13 L15,16 L12,16 L12,15 L11,15 L11,13 L3,13 L3,16 L0,16 L0,15 L-1,15 L-1,1 L0,1 Z M3,4 L3,10 L10,10 L10,9 L11,9 L11,7 L10,7 L10,5 L8,5 L8,4 Z " fill="#BE8FD0" transform="translate(69,16)"/>
<path d="M0,0 L14,0 L14,1 L15,1 L15,4 L9,4 L9,15 L8,15 L8,16 L6,16 L6,15 L5,15 L5,4 L-1,4 L-1,1 L0,1 Z " fill="#BE8FD0" transform="translate(35,16)"/>
<path d="M0,0 L1,0 L1,1 L2,1 L2,2 L3,2 L3,4 L4,4 L4,5 L5,5 L5,8 L4,8 L4,9 L1,9 L1,10 L-3,10 L-3,11 L-6,11 L-6,12 L-9,12 L-9,9 L-8,9 L-8,8 L-7,8 L-7,7 L-6,7 L-6,6 L-5,6 L-5,5 L-4,5 L-4,4 L-3,4 L-3,3 L-2,3 L-2,2 L-1,2 L-1,1 L0,1 Z " fill="#BE8FD0" transform="translate(93,8)"/>
<path d="M0,0 L3,0 L3,1 L4,1 L4,2 L6,2 L6,3 L7,3 L7,4 L8,4 L8,5 L7,5 L7,6 L6,6 L6,7 L5,7 L5,8 L4,8 L4,9 L3,9 L3,10 L2,10 L2,11 L1,11 L1,12 L0,12 L0,13 L-1,13 L-1,14 L-4,14 L-4,11 L-3,11 L-3,8 L-2,8 L-2,4 L-1,4 L-1,1 L0,1 Z " fill="#BE8FD0" transform="translate(84,2)"/>
<path d="M0,0 L4,0 L4,4 L3,4 L3,7 L-2,7 L-2,6 L-11,6 L-11,2 L-7,2 L-7,1 L0,1 Z " fill="#BE8FD0" transform="translate(96,25)"/>
<path d="M0,0 L4,0 L4,4 L3,4 L3,11 L2,11 L2,15 L-2,15 L-2,6 L-3,6 L-3,1 L0,1 Z " fill="#BE8FD0" transform="translate(71,0)"/>
<path d="M0,0 L2,0 L2,1 L3,1 L3,5 L-1,5 L-1,6 L-8,6 L-8,7 L-12,7 L-12,4 L-10,4 L-10,3 L-7,3 L-7,2 L-3,2 L-3,1 L0,1 Z " fill="#BE8FD0" transform="translate(97,18)"/>
<path d="M0,0 L4,0 L4,1 L5,1 L5,3 L4,3 L4,6 L3,6 L3,10 L2,10 L2,13 L1,13 L1,15 L-2,15 L-2,11 L-1,11 L-1,4 L0,4 Z " fill="#BE8FD0" transform="translate(77,0)"/>
</svg>
